<?xml version="1.0" encoding="utf-8"?>
<!-- Generator: Adobe Illustrator 19.2.1, SVG Export Plug-In . SVG Version: 6.00 Build 0)  -->
<svg version="1.1" id="Layer_1" xmlns="http://www.w3.org/2000/svg" xmlns:xlink="http://www.w3.org/1999/xlink" x="0px" y="0px"
	 viewBox="0 0 200 200" style="enable-background:new 0 0 200 200;" xml:space="preserve">
<style type="text/css">
	.st0{fill:#FCFCFC;}
</style>
<path class="st0" d="M193,44.2c-8.3,0-16.7,8.3-33.3,8.3c-16.7,0-25-8.3-33.3-8.3c-3.9,0-8.3,4.2-8.3,8.3v58.3
	c0,18.5,8.3,41.6,41.6,41.6c33.3,0,41.6-23.2,41.6-41.6V52.6C201.3,48.4,196.9,44.2,193,44.2z M130.5,83.8c0-5.7,4.7-10.4,10.4-10.4
	c5.7,0,10.4,4.7,10.4,10.4c0,5.7-4.7,10.4-10.4,10.4C135.2,94.2,130.5,89.5,130.5,83.8z M159.7,135.8c-20.8,0-25-16.6-25-16.6h50
	C184.6,119.2,180.5,135.8,159.7,135.8z M178.4,94.2c-5.7,0-10.4-4.7-10.4-10.4c0-5.7,4.7-10.4,10.4-10.4c5.7,0,10.4,4.7,10.4,10.4
	C188.8,89.5,184.1,94.2,178.4,94.2z"/>
<path class="st0" d="M94.9,110.5c2.1,0.2,4.2,0.3,6.5,0.3c3,0,5.7-0.1,8.3-0.5V85.9H76.4c0,0,4.2-16.7,25-16.7
	c4.2,0,5.8,0.6,8.3,1.6V52.6c0-7.6,3-14,8.3-16.7c8.3-4.2,11.7-2.5,16.7,0c8.3,4.2,8.3,4.2,8.3,4.2V10.9c0-4.2-4.4-8.3-8.3-8.3
	c-8.3,0-16.7,8.3-33.3,8.3c-16.6,0-25-8.3-33.3-8.3v0c-3.9,0-8.3,4.2-8.3,8.3v58.3c0,7.4,1.4,15.5,5.1,22.7c1.5,0.6,2.9,1.3,4.4,2
	C79.4,99,87.9,104.6,94.9,110.5z M82.7,31.7c5.7,0,10.4,4.7,10.4,10.4s-4.7,10.4-10.4,10.4c-5.7,0-10.4-4.7-10.4-10.4
	S76.9,31.7,82.7,31.7z"/>
<path class="st0" d="M41.3,93.1C23,93.1,8,102.3,4,110.1c-5.8,11.3-4.4,22.7,6.9,28.4c11.3,5.8,15.5,11.5,11.2,20
	c-5.8,11.3-1.6,24.1,9.7,29.9c13.2,6.7,25.2,9.6,35.5,9.6c18.5,0,31.9-9.1,38.4-21.8c17.3-33.9-5.2-59.7-39.2-77
	C58,94.8,49.3,93.1,41.3,93.1z M28.8,124.5c-1.4,2.8-4.2,4.3-7.1,4.3c-1.2,0-2.4-0.3-3.6-0.9c-3.9-2-5.5-6.8-3.5-10.7
	c1.4-2.8,4.2-4.3,7.1-4.3c1.2,0,2.4,0.3,3.6,0.9C29.2,115.8,30.8,120.6,28.8,124.5z M50.4,172.9c-1.7,3.3-5,5.2-8.5,5.2
	c-1.5,0-2.9-0.3-4.3-1c-4.7-2.4-6.5-8.1-4.2-12.8c1.7-3.3,5-5.2,8.5-5.2c1.5,0,2.9,0.3,4.3,1C50.9,162.5,52.8,168.2,50.4,172.9z
	 M57.2,117.6c-1.4,2.8-4.2,4.3-7.1,4.3c-1.2,0-2.4-0.3-3.6-0.9c-3.9-2-5.5-6.8-3.5-10.7c1.4-2.7,4.2-4.3,7.1-4.3
	c1.2,0,2.4,0.3,3.6,0.9C57.6,108.9,59.2,113.7,57.2,117.6z M82.6,144.8c1.4-2.8,4.2-4.3,7.1-4.3c1.2,0,2.4,0.3,3.6,0.9
	c3.9,2,5.5,6.8,3.5,10.7c-1.4,2.8-4.2,4.3-7.1,4.3c-1.2,0-2.4-0.3-3.6-0.9C82.1,153.4,80.6,148.7,82.6,144.8z M72.8,117.6
	c1.2,0,2.4,0.3,3.6,0.9c3.9,2,5.5,6.8,3.5,10.7c-1.4,2.8-4.2,4.3-7.1,4.3c-1.2,0-2.4-0.3-3.6-0.9c-3.9-2-5.5-6.8-3.5-10.7
	C67.1,119.2,69.9,117.6,72.8,117.6z"/>
</svg>
