<?xml version="1.0" encoding="utf-8"?>
<!-- Generator: Adobe Illustrator 19.2.1, SVG Export Plug-In . SVG Version: 6.00 Build 0)  -->
<svg version="1.1" id="Layer_1" xmlns="http://www.w3.org/2000/svg" xmlns:xlink="http://www.w3.org/1999/xlink" x="0px" y="0px"
	 viewBox="0 0 200 200" style="enable-background:new 0 0 200 200;" xml:space="preserve">
<style type="text/css">
	.st0{fill:#FCFCFC;}
</style>
<g>
	<path class="st0" d="M177.8,26.9H22.1c-11.9,0-21.6,9.7-21.6,21.6v102.9c0,11.9,9.7,21.6,21.6,21.6h28v-10.8h-9.9
		c-4,0-7.1-3.1-7.1-7.1s3.1-7.1,7.1-7.1h36.4c4,0,7.1,3.1,7.1,7.1s-3.1,7.1-7.1,7.1h-13v10.8H135v-10.8h-11.5c-4,0-7.1-3.1-7.1-7.1
		s3.1-7.1,7.1-7.1h36.4c4,0,7.1,3.1,7.1,7.1s-3.1,7.1-7.1,7.1h-11.5v10.8h29.6c11.9,0,21.6-9.7,21.6-21.6V48.5
		C199.5,36.6,189.8,26.9,177.8,26.9z M80.9,102.4c0,6-4.9,10.8-10.8,10.8H33.8c-6,0-10.8-4.9-10.8-10.8V60.9c0-6,4.9-10.8,10.8-10.8
		h36.2c6,0,10.8,4.9,10.8,10.8V102.4z M169.2,112.4h-63.4c-3.5,0-6.4-2.9-6.4-6.4c0-3.5,2.9-6.4,6.4-6.4h63.6c3.5,0,6.4,2.9,6.4,6.4
		C175.9,109.5,172.8,112.4,169.2,112.4z M169.2,87.2h-63.4c-3.5,0-6.4-2.9-6.4-6.4s2.9-6.4,6.4-6.4h63.6c3.5,0,6.4,2.9,6.4,6.4
		S172.8,87.2,169.2,87.2z M169.2,63.6h-63.4c-3.5,0-6.4-2.9-6.4-6.4s2.9-6.4,6.4-6.4h63.6c3.5,0,6.4,2.9,6.4,6.4
		S172.8,63.6,169.2,63.6z"/>
</g>
</svg>
