<?xml version="1.0" encoding="utf-8"?>
<!-- Generator: Adobe Illustrator 19.2.1, SVG Export Plug-In . SVG Version: 6.00 Build 0)  -->
<svg version="1.1" id="Layer_1" xmlns="http://www.w3.org/2000/svg" xmlns:xlink="http://www.w3.org/1999/xlink" x="0px" y="0px"
	 viewBox="0 0 200 200" style="enable-background:new 0 0 200 200;" xml:space="preserve">
<style type="text/css">
	.st0{fill:#FCFCFC;}
</style>
<g>
	<path class="st0" d="M96.1,110.8c0,0,2,4.1,6.7,4.1s6.7-4.1,6.7-4.1h-6.7H96.1z"/>
</g>
<g>
	<path class="st0" d="M174.1,154.6c-23.8-12.6-33.4-18.5-47.2-28.9l-2-1.6c1.4-1.2,2.8-2.4,4.1-3.7c5.7-5.9,9.8-13.8,12.2-23.2h0.2
		c0.2,0,0.4,0,0.8,0c2.4,0,4.9-1.2,6.5-3.5c1.4-1.6,2.2-3.9,2.4-6.3l1-10.8c0.2-2.4-0.2-4.9-1.2-6.9c-1.4-2.6-3.7-4.3-6.3-4.5h-0.8
		c0-0.6,0-1.2,0-1.6c1.4-10.8,3.7-35.8-5.1-47.2c-11.4-14.7-22-16.9-35.8-16.9S78.4,1.5,67,16.4c-6.9,9-6.9,26.3-6.1,38.5
		c0,0.4,0,0.8,0,1c0,3.3,0.2,6.3,0,9.2h-1c-2.6,0.2-5.1,1.8-6.3,4.5c-1,2-1.4,4.5-1.2,6.9l1,10.8c0.2,2.4,1,4.7,2.4,6.3
		c1.6,2.2,4.1,3.5,6.5,3.5c0.2,0,0.4,0,0.8,0l0,0c2.4,9.4,6.7,17.3,12.2,23c0.8,1,1.8,1.8,2.8,2.6l-3.5,2.6
		c-13.8,10.4-23.2,16.3-47.2,28.9l-1,1V200h55.2l-7.7-26.3c2,2.8,4.3,5.3,6.7,7.1l2.4,2l1.4-2.8c4.5-9.6,12.8-19.7,16.5-24.2
		c3.7,4.3,12,14.7,16.5,24.2l1.4,2.8l2.4-2c2.2-1.8,4.5-4.5,6.7-7.1l-7.7,26.3h55.2v-44.8L174.1,154.6z M120.7,139.7
		c-3.9,4.7-10.6,8.1-19.7,10c-9.2-1.8-15.9-5.3-19.7-10c-3.3-3.9-3.7-7.7-3.7-9.8c1.6-1.2,3.3-2.4,4.9-3.7
		c5.9,3.7,12.4,5.7,19.7,5.7c6.7,0,12.8-1.6,18.3-4.7c1.2,1,2.4,1.8,3.7,2.8C124.4,132,124,135.9,120.7,139.7z M119.7,108.6
		c-0.6,4.9-6.5,9.8-16.9,9.8s-16.3-4.9-16.9-9.8c-0.6-4.9,6.7-14,16.9-14S120.3,103.7,119.7,108.6z M73.5,33.3
		c7.5-0.8,18.5,3.1,29.3,3.1s21.8-3.9,29.3-3.1c3.1,0.4,4.7,13.2,5.7,24.4c-3.1-1.4-7.1-3.5-13.6-3.5c-11.6,0-12.4,5.1-21.8,5.1
		s-10.2-5.1-21.8-5.1c-6.7,0-10.8,2-13.8,3.5C67.6,46.7,69.4,33.9,73.5,33.3z M62.7,92.5h-0.2c-2,0-3.9-2.2-4.1-5.3l-1-10.8
		c-0.4-3.1,1.2-5.9,3.3-6.1l4.5-0.4c0.6,3.7,2.4,15.7,15.3,15.7c10.8,0,15.5-7.5,17.3-11.6c1.8-4.3,0.8-8.3,4.9-8.3s3.1,4.3,4.9,8.3
		c1.8,4.3,6.5,11.6,17.3,11.6c12.8,0,14.7-12,15.3-15.7l0,0l4.5,0.4c2,0.2,3.5,2.8,3.3,6.1l-1,10.8c-0.2,3.1-2,5.3-4.1,5.3h-0.2
		l-4.9-0.6l0,0c-1.4,7.1-3.9,13.6-7.3,18.9c-1.4,1.4-2.6,2.6-3.5,3.3c-1.4-6.7-5.7-23.4-24.2-23.4c-18.3,0-22.8,16.7-24.2,23.4
		c-1.2-0.8-3.5-3.3-5.7-5.9c-2.6-4.9-4.5-10.4-5.7-16.3L62.7,92.5z M81.5,175c-6.1-6.3-13-17.7-12.8-28.3c0-4.7,1.6-9,4.5-12.4
		c0.6,2.6,1.8,5.7,4.3,8.8c4.1,4.9,10.4,8.5,18.9,10.8C92.7,158.1,86.1,166.4,81.5,175z M120.5,175c-4.5-8.5-11.2-16.9-14.9-21.2
		c8.5-2.2,14.9-5.9,18.9-10.8c2.4-3.1,3.7-6.1,4.3-8.8c2.8,3.5,4.3,7.7,4.5,12.4C133.4,157.3,126.4,168.7,120.5,175z"/>
</g>
<g>
	<circle class="st0" cx="102.8" cy="175.8" r="3.7"/>
</g>
<g>
	<circle class="st0" cx="102.8" cy="196.3" r="3.7"/>
</g>
</svg>
