<?xml version="1.0" encoding="utf-8"?>
<!-- Generator: Adobe Illustrator 19.2.1, SVG Export Plug-In . SVG Version: 6.00 Build 0)  -->
<svg version="1.1" id="Layer_1" xmlns="http://www.w3.org/2000/svg" xmlns:xlink="http://www.w3.org/1999/xlink" x="0px" y="0px"
	 viewBox="0 0 200 200" style="enable-background:new 0 0 200 200;" xml:space="preserve">
<style type="text/css">
	.st0{fill:#FFFFFF;}
</style>
<g>
	<g>
		<g>
			<path class="st0" d="M181.9,78c-3.7-9.8-9.1-18.7-16-26.5l7-7l-4.1-4.1c-18.5-18.5-43.1-28.7-69.3-28.7
				c-26.2,0-50.8,10.2-69.3,28.7L26,44.5l7,7c-6.9,7.9-12.3,16.8-16,26.5C15.5,82,14.3,86,13.4,90l3.4-0.7l9.3-1.9
				c0.5-1.8,1.1-3.5,1.8-5.2C31,74,35.5,66.4,41.3,59.8l6.7,6.7l4.1-4.1c12.6-12.6,29.4-19.6,47.3-19.6s34.7,7,47.3,19.6l4.1,4.1
				l6.7-6.7c5.7,6.7,10.2,14.2,13.4,22.4c0.7,1.7,1.2,3.4,1.8,5.2l9.9,2l2.8,0.6C184.6,85.9,183.4,81.9,181.9,78z"/>
		</g>
	</g>
	<g>
		<g>
			<path class="st0" d="M16.7,107l-3.3,0.7c-7.6,1.5-12.6,9-11.1,16.6l10,50.3c0.7,3.7,2.9,6.9,6,9c2.3,1.6,5,2.4,7.8,2.4
				c0.9,0,1.9-0.1,2.8-0.3l3.3-0.7L16.7,107z"/>
		</g>
	</g>
	<g>
		<g>
			
				<rect x="35.6" y="95.9" transform="matrix(0.9808 -0.1951 0.1951 0.9808 -26.6557 12.058)" class="st0" width="24.6" height="90.9"/>
		</g>
	</g>
	<g>
		<g>
			<path class="st0" d="M195.1,113.7c-2.1-3.1-5.3-5.3-9-6l-3.3-0.7l-15.5,78l3.3,0.7c0.9,0.2,1.9,0.3,2.8,0.3
				c2.8,0,5.5-0.8,7.8-2.4c3.1-2.1,5.3-5.3,6-9l10-50.3C197.9,120.6,197.2,116.8,195.1,113.7z"/>
		</g>
	</g>
	<g>
		<g>
			
				<rect x="106.1" y="129.1" transform="matrix(0.1951 -0.9808 0.9808 0.1951 -16.6089 262.4314)" class="st0" width="90.9" height="24.6"/>
		</g>
	</g>
</g>
</svg>
