<?xml version="1.0" encoding="utf-8"?>
<!-- Generator: Adobe Illustrator 19.2.1, SVG Export Plug-In . SVG Version: 6.00 Build 0)  -->
<svg version="1.1" id="Layer_1" xmlns="http://www.w3.org/2000/svg" xmlns:xlink="http://www.w3.org/1999/xlink" x="0px" y="0px"
	 viewBox="0 0 80.3 40" style="enable-background:new 0 0 80.3 40;" xml:space="preserve">
<style type="text/css">
	.st0{fill:#F9F9F9;}
</style>
<g>
	<path class="st0" d="M58.1,2.4l-24,3.1C33.5,5.6,33,6,33,6.6V10v2.8V27c-1.5-1.1-3.5-1.7-5.7-1.7c-4.5,0-8.2,2.8-8.2,6.2
		s3.7,6.2,8.2,6.2c4.5,0,8.1-2.7,8.2-6.1c0,0,0,0,0,0V13.7L57,10.9v9.9c-1.5-1.1-3.5-1.7-5.7-1.7c-4.5,0-8.2,2.8-8.2,6.2
		s3.7,6.2,8.2,6.2s8.2-2.8,8.2-6.2V9.7V4.5v-1c0-0.3-0.2-0.6-0.4-0.8C58.8,2.5,58.4,2.4,58.1,2.4z M27.3,35.6
		c-3.1,0-5.7-1.9-5.7-4.2s2.5-4.2,5.7-4.2s5.7,1.9,5.7,4.2S30.5,35.6,27.3,35.6z M35.5,11.6V10V7.4L57,4.7v4.1L35.5,11.6z
		 M51.3,29.4c-3.1,0-5.7-1.9-5.7-4.2s2.5-4.2,5.7-4.2S57,23,57,25.2S54.4,29.4,51.3,29.4z"/>
	<path class="st0" d="M80.3,6.7h-5.3V3.3h-5.3V0H10.9v3.3H5.6v3.3H0.3v26.6h5.3v3.3h5.3V40h58.7v-3.3h5.3v-3.3h5.3V6.7z M2.9,31.6
		V8.3h2.7v23.3H2.9z M8.3,35v-1.7V6.7V5h2.7v30H8.3z M66.9,38.3H13.6v-1.7V3.3V1.7h53.3v1.7v33.3V38.3z M72.3,35h-2.7V5h2.7v1.7
		v26.6V35z M77.6,31.6h-2.7V8.3h2.7V31.6z"/>
</g>
</svg>
