<?xml version="1.0" encoding="utf-8"?>
<!-- Generator: Adobe Illustrator 19.2.1, SVG Export Plug-In . SVG Version: 6.00 Build 0)  -->
<svg version="1.1" id="Layer_1" xmlns="http://www.w3.org/2000/svg" xmlns:xlink="http://www.w3.org/1999/xlink" x="0px" y="0px"
	 viewBox="0 0 200 200" style="enable-background:new 0 0 200 200;" xml:space="preserve">
<style type="text/css">
	.st0{fill:#FCFCFC;}
</style>
<path class="st0" d="M100,1C45.1,1,0.5,45.6,0.5,100.5S45.1,200,100,200s99.5-44.6,99.5-99.5l0,0C199.5,45.6,154.9,1,100,1z
	 M100,192C49.3,192,8.5,151,8.5,100.5S49.3,9,100,9s91.5,41.1,91.5,91.5S150.5,192,100,192z"/>
<path class="st0" d="M181.3,100.5c0,45-36.4,81.3-81.3,81.3s-81.3-36.2-81.3-81.3S55,19,100,19l0,0C145,19,181.3,55.5,181.3,100.5
	 M92.2,76.2c0,0,5.2,2.5-0.4,8.2c-2.3,2.3-4,2.7-5.9,5.2h27.9L108,65.3H93.7l-3.8,5h-6.7v8.4l2.5-2.5L92.2,76.2L92.2,76.2z
	 M53.1,104.9L75.3,120c-1.3-3.8-1.7-8-1.3-11.9c0.2-3.1,0.6-6.3,1.5-9.2h-5.9l-2.1-6.9l4.6-2.9V74.3L42,58.8v7.5l11.1,13.8
	C53.1,80.4,53.1,104.9,53.1,104.9z M127.9,74.5v14.7l4.6,2.9l-2.1,6.9h-5.9c0.8,2.9,1.3,6.1,1.5,9.2c0.4,4,0,8-1.3,11.9l22.2-15.3
	V80.4L158,66.6V59L127.9,74.5z M108,144.9c-2.5,2.1-5.2,4-8,5.7c-2.7-1.7-5.4-3.6-8-5.7v7.5l-8,7.5l15.9,11.9l15.9-11.9l-8-7.5
	V144.9L108,144.9z M100,139.9c18.9-8.6,17.2-28.9,17.2-28.9c0-4-0.6-8.2-1.7-12.1H84.3c-1,4-1.7,8-1.7,12.1
	C82.8,111.2,81.1,131.3,100,139.9z M89.7,58.6l10.3-7.5l10.3,7.5l-4-12.1l10.5-7.5H104l-4-12.1l-4,12.1H83.2l10.5,7.5L89.7,58.6z
	 M78.2,128.2l-6.9,4.6l2.1,2.9l-7.3,5.2l-1.9-2.7l-5,3.6l-8-11.1l3.8-2.7l-12.8-7.3l2.7,14.5l4-2.7l8,11.1l-4.6,3.4l6.5,9.2l4.6-3.4
	l6.5,9.2l2.5-1.7l-6.5-9.2l4.8-3.6l-2.1-2.7l7.3-5.2l2.1,2.9l6.9-4.6C82.2,134.9,79.9,131.5,78.2,128.2z M148.8,130.5l-8,11.1
	l-5-3.6l-1.9,2.7l-7.3-5.2l2.1-2.9l-6.9-4.6c-1.7,3.6-4,6.7-6.7,9.4l6.9,4.6l2.1-2.9l7.3,5.2l-2.1,2.7l5,3.6l-6.5,9.2l2.3,1.7
	l6.5-9.2l4.6,3.4l6.5-9.2l-4.6-3.4l8-11.1l4,2.7l2.7-14.5l-12.8,7.1L148.8,130.5z"/>
</svg>
