<?xml version="1.0" encoding="utf-8"?>
<!-- Generator: Adobe Illustrator 19.2.1, SVG Export Plug-In . SVG Version: 6.00 Build 0)  -->
<svg version="1.1" id="Layer_1" xmlns="http://www.w3.org/2000/svg" xmlns:xlink="http://www.w3.org/1999/xlink" x="0px" y="0px"
	 viewBox="0 0 200 200" style="enable-background:new 0 0 200 200;" xml:space="preserve">
<style type="text/css">
	.st0{fill:#FFFFFF;}
</style>
<path class="st0" d="M99.7,1.7C46.6,1.7,3.3,44.9,3.3,98.1c0,15.5,3.7,30.8,10.9,44.5l-7.4,45.4c-0.5,3,0.5,6.1,2.7,8.2
	c1.8,1.7,4.1,2.6,6.5,2.6c0.6,0,1.2-0.1,1.8-0.2l49.5-9.7c10.4,3.7,21.3,5.6,32.4,5.6c53.1,0,96.4-43.2,96.4-96.4
	S152.8,1.7,99.7,1.7z M99.7,175.8c-9.7,0-19.2-1.8-28.2-5.3c-1.6-0.6-3.4-0.8-5.2-0.5l-39,7.6l5.8-35.3c0.3-2.1,0-4.2-1.1-6.1
	C25.4,124.7,22,111.5,22,98.1c0-42.9,34.9-77.7,77.7-77.7s77.7,34.9,77.7,77.7S142.6,175.8,99.7,175.8z"/>
<path class="st0" d="M70.2,94.7l-4.1,13c-0.5,1.6,0.4,3.4,2,3.9c0.3,0.1,0.6,0.1,0.9,0.1c1.3,0,2.5-0.8,3-2.2l4.7-14.8h12.4
	c1.7,0,3.1-1.4,3.1-3.1c0-1.7-1.4-3.1-3.1-3.1H78.6L82,77.9h10.4c1.7,0,3.1-1.4,3.1-3.1c0-1.7-1.4-3.1-3.1-3.1h-8.4l3.6-11.5
	c0.5-1.6-0.4-3.4-2-3.9c-1.6-0.5-3.4,0.4-3.9,2l-4.2,13.4H66.3l3.6-11.5c0.5-1.6-0.4-3.4-2-3.9c-1.6-0.5-3.4,0.4-3.9,2l-4.2,13.4
	H48.1c-1.7,0-3.1,1.4-3.1,3.1c0,1.7,1.4,3.1,3.1,3.1h9.7l-3.3,10.6h-9.7c-1.7,0-3.1,1.4-3.1,3.1s1.4,3.1,3.1,3.1h7.7l-4.1,13
	c-0.5,1.6,0.4,3.4,2,3.9c0.3,0.1,0.6,0.1,0.9,0.1c1.3,0,2.5-0.8,3-2.2L59,94.7C59,94.7,70.2,94.7,70.2,94.7z M64.3,77.9h11.1
	l-3.3,10.6H61L64.3,77.9z"/>
<path class="st0" d="M132.8,136.1H63.4c-3.1,0-5.7,2.5-5.7,5.7c0,3.1,2.5,5.7,5.7,5.7h69.5c3.1,0,5.7-2.5,5.7-5.7
	C138.5,138.6,136,136.1,132.8,136.1z"/>
<path class="st0" d="M151.2,98.3h-36.8c-3.1,0-5.7,2.5-5.7,5.7c0,3.1,2.5,5.7,5.7,5.7h36.8c3.1,0,5.7-2.5,5.7-5.7
	C156.9,100.9,154.3,98.3,151.2,98.3z"/>
<path class="st0" d="M121.2,72h20.3c3.1,0,5.7-2.5,5.7-5.7c0-3.1-2.5-5.7-5.7-5.7h-20.3c-3.1,0-5.7,2.5-5.7,5.7
	C115.5,69.5,118.1,72,121.2,72z"/>
</svg>
