<svg xmlns="http://www.w3.org/2000/svg" xmlns:xlink="http://www.w3.org/1999/xlink" version="1.1" x="0px" y="0px" viewBox="-949.5 1000.5 100 100" enable-background="new -949.5 1000.5 100 100" xml:space="preserve"><path d="M-856.869,1043.395c0,0-4.737-9.474-14.21-9.474s-47.368,0-56.842,0s-14.21,9.474-14.21,9.474l-2.369,1.185v3.553  l2.369,2.368c0,0,0,16.579,14.21,16.579c28.421,0,21.315-21.315,28.421-21.315c6.816,0,0,21.315,28.421,21.315  c14.21,0,14.21-16.58,14.21-16.58l2.369-2.367v-3.553L-856.869,1043.395z M-929.846,1037.756c0.661-0.119,1.353-0.2,2.104-0.2  c0,0,12.891,0,17.188,0c0.538,0,1.02,0.082,1.477,0.2c1.233,0.315,2.173,1.011,2.754,1.954h-28.113  C-933.233,1038.828-931.708,1038.089-929.846,1037.756z M-923.152,1063.919h-6.8c-1.719-0.291-3.196-0.94-4.446-1.955h19.342  C-917.058,1062.908-919.677,1063.599-923.152,1063.919z M-911.902,1059.884h-24.405c-0.409-0.59-0.785-1.237-1.12-1.953h27.224  C-910.674,1058.614-911.23,1059.27-911.902,1059.884z M-909.018,1055.849h-29.229c-0.213-0.678-0.38-1.338-0.508-1.954h30.553  C-908.449,1054.547-908.713,1055.201-909.018,1055.849z M-907.463,1051.813h-31.625c-0.105-0.941-0.112-1.545-0.112-1.56  l-0.001-0.394h32.325C-907.062,1050.537-907.259,1051.19-907.463,1051.813z M-906.362,1047.78h-32.563l0.36-1.954h32.593  C-906.082,1046.463-906.214,1047.117-906.362,1047.78z M-905.693,1043.744h-32.287c0.267-0.477,0.713-1.183,1.351-1.953h30.971  c0.017,0.177,0.046,0.348,0.046,0.528C-905.613,1042.75-905.646,1043.235-905.693,1043.744z M-889.971,1037.756  c0.456-0.118,0.939-0.2,1.477-0.2c4.3,0,17.198,0,17.198,0c0.75,0,1.443,0.081,2.104,0.2c1.863,0.333,3.389,1.072,4.594,1.954  h-28.129C-892.146,1038.767-891.205,1038.071-889.971,1037.756z M-893.438,1042.319c0-0.181,0.029-0.352,0.046-0.528h30.988  c0.639,0.771,1.086,1.477,1.353,1.953h-32.306C-893.405,1043.235-893.438,1042.75-893.438,1042.319z M-893.078,1045.826h32.611  l0.36,1.954h-32.583C-892.837,1047.117-892.97,1046.463-893.078,1045.826z M-868.836,1063.919c-0.725,0.119-1.476,0.199-2.284,0.199  c-1.738,0-3.308-0.072-4.744-0.199h-0.024c-3.478-0.32-6.098-1.011-8.101-1.955h19.354c-1.25,1.015-2.729,1.664-4.448,1.955  H-868.836z M-862.727,1059.884h-24.419c-0.671-0.614-1.229-1.27-1.7-1.953h27.24  C-861.942,1058.646-862.318,1059.294-862.727,1059.884z M-860.786,1055.849h-29.246c-0.305-0.647-0.569-1.302-0.815-1.954h30.569  C-860.405,1054.511-860.573,1055.171-860.786,1055.849z M-859.831,1050.254c0,0.015-0.007,0.618-0.113,1.56h-31.644  c-0.205-0.623-0.401-1.276-0.586-1.953h32.344L-859.831,1050.254z"></path></svg>