<?xml version="1.0" encoding="utf-8"?>
<!-- Generator: Adobe Illustrator 19.2.1, SVG Export Plug-In . SVG Version: 6.00 Build 0)  -->
<svg version="1.1" id="Layer_1" xmlns="http://www.w3.org/2000/svg" xmlns:xlink="http://www.w3.org/1999/xlink" x="0px" y="0px"
	 viewBox="0 0 80.3 39.9" style="enable-background:new 0 0 80.3 39.9;" xml:space="preserve">
<style type="text/css">
	.st0{fill:#F9F9F9;}
</style>
<path class="st0" d="M80.2,32L80.2,32c0-2.7-2.9-3.9-3-3.9c-1.7-0.9-3.3-1.5-4.8-2.1c-0.7-0.3-1.3-0.5-2-0.8
	c-6.9-2.8-12.7-5.8-17.5-8.6c0-0.4-0.3-0.8-0.7-0.8c-0.2,0-0.3,0-0.5,0.1c-0.2-0.1-0.5-0.3-0.7-0.4c-0.2-0.5-0.6-1.3-1.4-1.7
	c0,0-0.1,0-0.1,0c-0.3-0.2-0.6-0.4-1-0.4c-0.2,0-0.4,0-0.7,0.1c-0.7-0.5-1.4-0.9-2-1.4c0.1-0.2,0-0.5-0.2-0.7
	c-0.7-0.7-1.4-0.9-2.2-1c-0.4-0.3-0.8-0.6-1.1-0.8c0.1-0.2,0.1-0.3,0.1-0.5c-0.1-0.4-0.5-0.7-0.9-0.6c-0.1,0-0.3,0.1-0.4,0.1
	c-0.1-0.1-0.2-0.2-0.3-0.2c0-0.2,0-0.4,0-0.6c0-0.4-0.4-0.8-0.8-0.8c0,0,0,0,0,0c-0.2,0-0.4,0.1-0.6,0.3c-5-4.2-7.2-7.1-7.2-7.1
	c-0.2-0.2-0.5-0.4-0.8-0.3c-0.3,0.1-0.5,0.3-0.6,0.6c-0.3,1.1-0.7,2.2-1.1,3.5c-4.3,11.6-9.7,12.6-9.8,12.6c-0.3,0-0.6,0-1,0
	c-3.8-3.9-7-5.9-9.3-5.9c0,0,0,0-0.1,0c-0.9,0-1.4,0.4-1.6,0.5c-0.2,0.1-0.3,0.2-0.4,0.4c-0.5,0.9-0.9,1.9-1.3,2.8l-0.9-0.7
	c-0.1,0-0.1-0.1-0.2-0.1l-2.3-0.7c-0.3-0.1-0.7,0-0.9,0.3l-1.9,2.6c-0.2,0.3-0.2,0.6,0,0.9l1.4,2c0,0.1,0.1,0.1,0.2,0.2l2.9,2.1
	c-0.5,3.9,0.1,6.6,0.5,7.7c-1.7,0.9-2.9,2.7-2.9,4.8c0,2.9,2.3,5.3,5.2,5.4l0,0c0.1,0,8.6,1,21.6,1h18.2c0,0,1.2,0,3-0.1
	c0,0,0.1,0,0.1,0c0.1,0,0.1,0,0.2,0c2.5-0.1,6.1-0.2,9.9-0.5c0,0,0,0,0,0c0.1,0,0.1,0,0.2,0c0.3,0,0.7-0.1,1-0.1
	c7-0.6,12-1.6,15.1-2.9c0,0,0,0,0,0c0,0,0,0,0,0c1.3-0.6,2.3-1.2,2.9-1.9C80.2,33.7,80.4,32.9,80.2,32z M40.6,10.5c0,0,0.1,0,0.1,0
	c0.2,0.2,0.4,0.3,0.6,0.5c-0.3,0.1-0.7,0.3-0.9,0.4C40.5,11.1,40.6,10.8,40.6,10.5z M20.2,18.2c0.3,0,6.4-1,11-13.6
	c0.3-0.8,0.5-1.5,0.8-2.2c0.2,0.2,0.4,0.4,0.6,0.7c-4.1,10.8-7.5,15.2-12.3,15.6c-4,0.3-6.6-1.6-8.3-2.8c-0.3-0.2-0.5-0.4-0.7-0.5
	c-1-0.7-2.2-1.4-2.8-1.8c0.1-0.2,0.2-0.4,0.3-0.6c0.7,0.3,1.8,0.9,3.2,2C12.1,15.1,16.6,18.5,20.2,18.2z M12.9,13.7
	c-0.5-0.4-0.9-0.7-1.3-1c1,0.4,2.3,1.2,3.9,2.7C14,14.6,12.9,13.7,12.9,13.7z M1.7,16.3l0.4-0.6l0.6,0.4c0.1,0.1,0.2,0.1,0.2,0.1
	c0.1,0,0.2-0.1,0.3-0.2c0.1-0.2,0.1-0.4-0.1-0.5L2.6,15L3,14.5l1.7,0.5l5.9,4.2l-0.8,1.1l-1-0.8c-0.2-0.1-0.4-0.1-0.5,0.1
	c-0.1,0.2-0.1,0.4,0.1,0.5l1,0.8l-0.7,0.9l-5.9-4.2L1.7,16.3z M6.1,22l2.3,1.7c0.1,0.1,0.3,0.1,0.5,0.1c0,0,0.1,0,0.1,0
	c0.2,0,0.4-0.1,0.5-0.3l2.8-3.9c0.2-0.3,0.2-0.8-0.2-1.1l-4.4-3.2c0.1-0.1,0.1-0.3,0.2-0.4c0.6,0.4,1.6,1,2.6,1.7
	c0.2,0.1,0.4,0.3,0.7,0.5c1.6,1.2,4.3,3.2,8.3,3.2c0.3,0,0.7,0,1,0c6.2-0.5,9.8-6.7,13.4-15.9c0.9,0.9,2,2,3.4,3.2
	c-0.7,0-1.5-0.2-2.4-0.7c-0.2-0.1-0.4,0-0.5,0.2c-0.1,0.2,0,0.4,0.2,0.5c1.2,0.6,2.3,0.8,3.1,0.8c0.2,0,0.4,0,0.6,0
	c0.4,0.3,0.8,0.6,1.1,0.9c-5.6,1.5-6.9,2.6-7.2,3.3c-0.1,0-0.1,0-0.2,0c-0.2,0-0.4,0.2-0.4,0.4c0,0.1,0,0.8,0.6,1.2
	c0.2,0.1,0.4,0.2,0.6,0.2c0.3,0,0.5-0.1,0.9-0.2c0.2-0.1,0.3-0.3,0.2-0.5c0-0.1-0.1-0.2-0.2-0.2c0,0,0-0.1,0-0.1
	c0.2-0.2,1.2-1,5.5-2.2c-0.7,2.7-2,5.2-2.1,5.3c-0.1-0.1-0.2-0.1-0.3-0.1c-0.2,0-0.4,0.2-0.3,0.4c0,0.1,0.1,0.8,0.7,1.1
	c0.2,0.1,0.4,0.2,0.6,0.2c0.3,0,0.6-0.1,0.9-0.2c0.2-0.1,0.3-0.3,0.2-0.5c-0.1-0.1-0.2-0.2-0.3-0.2c0.2-0.4,0.8-1.6,1.5-3.3
	c0.5-0.3,1.9-1.3,3.3-1.4c0.2,0.2,0.4,0.3,0.6,0.5c-0.6,2.8-1.1,5.2-1.2,5.9c-0.1-0.1-0.2-0.1-0.4-0.1c-0.2,0.1-0.3,0.3-0.2,0.5
	c0,0.1,0.3,0.8,0.9,1C42.9,20,43,20,43.2,20c0.3,0,0.7-0.1,1-0.3c0.2-0.1,0.2-0.4,0.1-0.5C44.2,19,44.1,19,43.9,19
	c0.1-0.3,0.5-2.7,1.1-5.4c0.4,0.3,0.9,0.6,1.3,0.9c-0.7,0.5-1.3,1.1-1.5,1.3c-0.3,0.3-0.3,0.8,0,1.1c0.3,0.3,0.8,0.3,1.1,0
	c0.5-0.5,1.2-1.1,1.8-1.4c0.3,0.2,0.5,0.3,0.8,0.5l0.2,4.8c-0.1,0-0.2,0-0.3,0c-0.2,0.1-0.2,0.4-0.1,0.5c0.1,0.1,0.5,0.7,1.2,0.7
	c0,0,0,0,0,0c0.4,0,0.8-0.2,1.1-0.7c0.1-0.2,0.1-0.4-0.1-0.5c-0.1,0-0.2-0.1-0.2-0.1L50.2,17c0.1,0,0.2,0.1,0.3,0.1
	c0.2,0.1,0.5,0.3,0.7,0.4c-0.1,0.4-0.3,0.8-0.5,1.1c-0.2,0.4,0,0.9,0.4,1c0.1,0,0.2,0.1,0.3,0.1c0.3,0,0.6-0.2,0.7-0.4
	c0-0.1,0.2-0.5,0.4-1c4.8,2.8,10.5,5.6,17.4,8.4c0.7,0.3,1.4,0.5,2,0.8c1.5,0.6,3,1.1,4.7,2c0,0,1.6,0.7,2,1.9
	c-0.2,0.1-0.5,0.2-0.9,0.4c-5.7,1.5-15.2,1.6-25.4,1.1l-8.5-3.3c-0.9-0.6-1.4-0.9-1.4-0.9c-0.2-0.1-0.4-0.1-0.5,0
	c-0.1,0.2-0.1,0.4,0,0.5c0.1,0.1,2.1,1.8,6.9,3.5c-19.7-1.3-40.7-4.6-41-4.7l-0.1,0l-0.1,0c-0.3,0-0.6,0-1,0.1
	C6.3,27.2,5.8,25,6.1,22z M73.9,35.7c-0.1-0.4-0.2-1-0.2-1.5c0.5-0.1,1-0.1,1.5-0.2c0,0.5,0.1,0.9,0.2,1.3
	C74.9,35.4,74.4,35.6,73.9,35.7z M70.5,36.5c0-0.1,0-0.2-0.1-0.4c0.2,0,0.3-0.1,0.5-0.1c0.2,0,0.3-0.2,0.2-0.4
	c0-0.2-0.2-0.3-0.4-0.2c-0.1,0-0.3,0.1-0.4,0.1c0-0.4-0.1-0.7-0.1-1c0.6,0,1.2-0.1,1.8-0.2c0.1,0.7,0.2,1.3,0.3,1.8
	C71.8,36.3,71.2,36.4,70.5,36.5z M67.1,37.1c0-0.1,0-0.2-0.1-0.3c0.6-0.1,1.2-0.2,1.8-0.3c0,0.1,0,0.2,0.1,0.3
	C68.4,36.9,67.8,37,67.1,37.1z M64.1,37.5c0-0.1-0.1-0.2-0.1-0.3c0.5-0.1,1-0.1,1.5-0.2c0,0.1,0,0.2,0,0.3
	C65.1,37.3,64.6,37.4,64.1,37.5z M57.9,38c0-0.1-0.1-0.3-0.1-0.5c0.5,0,1,0,1.5,0c0,0.1,0.1,0.3,0.1,0.4C58.9,37.9,58.4,38,57.9,38z
	 M54.4,38.2c0-0.2-0.1-0.4-0.1-0.7c0.5,0,1.1,0,1.6,0c0.1,0,0.3,0,0.4,0c0,0.2,0.1,0.4,0.1,0.6C55.7,38.1,55,38.2,54.4,38.2z
	 M50.9,38.3c0-0.2-0.1-0.5-0.1-0.9c0.6,0,1.2,0,1.9,0.1c0,0.3,0.1,0.6,0.1,0.8C52.2,38.3,51.5,38.3,50.9,38.3z M47.8,38.4
	c-0.1-0.3-0.1-0.6-0.2-1.1c0.5,0,1.1,0.1,1.6,0.1c0,0.4,0.1,0.7,0.1,1C48.8,38.4,48.3,38.4,47.8,38.4z M44.8,38.4
	c-0.1-0.3-0.2-0.8-0.3-1.3c0.5,0,1,0.1,1.6,0.1c0,0.5,0.1,0.9,0.2,1.2H44.8z M41.5,38.4c-0.1-0.4-0.2-0.9-0.2-1.6
	c0.5,0.1,1.1,0.1,1.6,0.2c0.1,0.6,0.2,1.1,0.3,1.5L41.5,38.4L41.5,38.4z M35.3,38.4c-0.1-0.5-0.2-1.3-0.2-2.4
	c0.4,0.1,0.9,0.1,1.5,0.2c0,0.8,0.1,1.6,0.1,2.2C36.7,38.4,35.3,38.4,35.3,38.4z M32.2,38.4c-0.1-0.5-0.3-1.4-0.3-2.5
	c0.5,0,1.1,0,1.6-0.1c0,1,0.1,1.9,0.2,2.5H32.2z M29,38.4C29,38.4,28.9,38.4,29,38.4c-0.1-0.5-0.2-1.4-0.3-2.4c0.5,0,1.1,0,1.7,0
	c0,1,0.2,1.8,0.3,2.4H29z M25.7,38.4c-0.1-0.5-0.2-1.4-0.2-2.5c0.6,0,1.1,0,1.7,0c0,1,0.1,1.8,0.2,2.4
	C26.8,38.4,26.2,38.4,25.7,38.4z M22.4,38.3c-0.1-0.4-0.2-1.3-0.2-2.6c0.6,0,1.1,0.1,1.7,0.1c0,1,0.1,1.9,0.2,2.5
	C23.5,38.3,23,38.3,22.4,38.3z M19.2,38.2c-0.1-0.6-0.2-1.6-0.2-2.7c0.5,0,1.1,0.1,1.6,0.1c0,1.1,0.1,2,0.2,2.6
	C20.3,38.2,19.7,38.2,19.2,38.2z M16.4,38.1c-0.2-0.5-0.5-1.6-0.5-2.8c0.5,0.1,1,0.1,1.5,0.2c0,1.1,0.1,2.1,0.2,2.8
	C17.2,38.1,16.8,38.1,16.4,38.1z M13.6,37.9c-0.2-0.4-0.7-1.6-0.8-3.1c0.5,0.1,1,0.1,1.6,0.2c0,1.2,0.2,2.2,0.4,2.9
	C14.4,37.9,14,37.9,13.6,37.9z M10.6,37.7c-0.3-0.5-1.1-1.8-1.2-3.3c0.6,0.1,1.2,0.2,1.9,0.3c0,1.3,0.3,2.4,0.6,3.1
	C11.4,37.7,11,37.7,10.6,37.7z M7.6,37.4c-0.3-0.4-1.3-1.8-1.4-3.6c0.5,0.1,1,0.2,1.6,0.3c0,1.3,0.4,2.4,0.8,3.4
	C8.1,37.4,7.8,37.4,7.6,37.4z M7.9,30C7.9,29.9,8,29.8,8,29.7c0.4,0.1,0.9,0.1,1.6,0.2c0,0,0,0-0.1,0c-1.1,1.1-1.5,2.3-1.7,3.5
	c-0.6-0.1-1.1-0.2-1.6-0.3C6.4,32.2,6.8,31,7.9,30z M56.2,36.9c-0.7,0-1.3,0-2,0c-0.1-0.6-0.1-1.2-0.1-1.8c0-0.2-0.1-0.4-0.2-0.5
	c0.8,0,1.6,0.1,2.4,0.1c-0.1,0.1-0.2,0.3-0.3,0.5C56,35.7,56.1,36.3,56.2,36.9z M50.8,35.2c0-0.3-0.1-0.6-0.4-0.7
	c0.8,0,1.6,0.1,2.3,0.1c-0.1,0.1-0.2,0.3-0.2,0.5c0,0.6,0,1.3,0.1,1.9c-0.6,0-1.2,0-1.9-0.1C50.7,36.3,50.7,35.7,50.8,35.2z
	 M49.2,35c-0.1,0.6-0.1,1.2-0.1,1.8c-0.5,0-1.1-0.1-1.6-0.1c0-0.5,0-1.1,0.1-1.7c0-0.3-0.1-0.6-0.3-0.7c0.8,0.1,1.5,0.1,2.3,0.1
	C49.5,34.5,49.3,34.7,49.2,35z M46.2,34.7C46.1,35.4,46,36,46,36.5c-0.5,0-1.1-0.1-1.6-0.1c0-0.5,0-1.1,0.1-1.7
	c0-0.3-0.1-0.6-0.3-0.8c0.8,0.1,1.6,0.1,2.4,0.2C46.4,34.3,46.2,34.5,46.2,34.7z M43,34.5c-0.1,0.6-0.1,1.2-0.1,1.8
	c-0.5-0.1-1.1-0.1-1.6-0.2c0-0.4,0-0.9,0.1-1.4c0.1-0.4-0.2-0.8-0.6-0.9c-0.4-0.1-0.8,0.2-0.9,0.6c-0.1,0.5-0.1,1-0.1,1.5
	c-0.6-0.1-1.1-0.1-1.6-0.2c0-0.5,0.1-0.9,0.2-1.3c0.1-0.4-0.2-0.8-0.6-0.9c-0.4-0.1-0.8,0.2-0.9,0.6c-0.1,0.5-0.2,1-0.2,1.5
	c-0.6-0.1-1.1-0.1-1.5-0.2c0-0.4,0.1-0.9,0.1-1.4c0.1-0.4-0.2-0.8-0.7-0.9c-0.4-0.1-0.8,0.2-0.9,0.7c-0.1,0.5-0.1,1-0.1,1.5
	c-0.6,0-1.1,0-1.7,0.1c0-0.5,0.1-1,0.2-1.5c0.1-0.4-0.2-0.8-0.6-0.9c-0.4-0.1-0.8,0.2-0.9,0.6c-0.1,0.6-0.2,1.2-0.2,1.9
	c-0.6,0-1.1,0-1.6,0c0-0.6,0.1-1.3,0.2-2c0.1-0.4-0.2-0.8-0.6-0.9c4.7,0.5,9.9,1.1,15.1,1.5C43.2,34,43,34.2,43,34.5z M27.4,33
	c-0.2,0.8-0.2,1.6-0.2,2.3c-0.6,0-1.1,0-1.7,0c0-0.7,0.1-1.5,0.2-2.3c0.1-0.4-0.2-0.8-0.6-0.9c-0.4-0.1-0.8,0.2-0.9,0.6
	c-0.2,0.9-0.2,1.7-0.2,2.5c-0.6,0-1.1-0.1-1.7-0.1c0-0.8,0.2-1.7,0.4-2.7c0.1-0.3,0-0.6-0.2-0.7c1.8,0.2,3.8,0.5,5.9,0.7
	C27.9,32.4,27.5,32.6,27.4,33z M21.1,32.1c-0.3,1.1-0.4,2.1-0.5,3c-0.5,0-1.1-0.1-1.6-0.1c0.1-0.9,0.2-1.8,0.5-2.7
	c0.1-0.3,0-0.7-0.3-0.9c0.7,0.1,1.4,0.2,2.2,0.3C21.3,31.7,21.2,31.8,21.1,32.1z M18.1,31.6c-0.4,1-0.6,2.1-0.6,3.1
	c-0.5-0.1-1-0.1-1.6-0.2c0-0.8,0.2-1.7,0.6-2.6c0.2-0.4,0-0.9-0.4-1c-0.4-0.2-0.9,0-1,0.4c-0.5,1.1-0.7,2.1-0.7,3.1
	c-0.5-0.1-1.1-0.1-1.6-0.2c0.1-0.9,0.3-1.8,0.9-2.7c0.2-0.3,0.1-0.8-0.2-1c1.5,0.2,3.2,0.4,5.1,0.7C18.4,31.3,18.2,31.4,18.1,31.6z
	 M12.4,30.7c-0.7,1.1-1,2.3-1.1,3.3c-0.7-0.1-1.3-0.2-1.9-0.3c0.1-0.9,0.4-1.8,1.3-2.7c0.2-0.3,0.3-0.6,0.1-0.9
	c0.6,0.1,1.2,0.2,2,0.3C12.6,30.4,12.5,30.5,12.4,30.7z M38.1,36.4c0.5,0.1,1,0.1,1.6,0.2c0,0.7,0.1,1.3,0.2,1.8h-1.7
	C38.2,37.9,38.1,37.2,38.1,36.4z M57.7,36.9c-0.1-0.6-0.2-1.2-0.1-1.6c0-0.2-0.1-0.5-0.2-0.6c0.6,0,1.2,0,1.8,0c0,0,0,0.1,0,0.1
	c-0.1,0.6,0,1.3,0.1,2C58.7,36.9,58.2,36.9,57.7,36.9z M60.6,35.1c0-0.1,0-0.2,0-0.3c0.6,0,1.2,0,1.8,0c-0.1,0.1-0.2,0.3-0.3,0.5
	c-0.1,0.5,0,1,0.1,1.5c-0.5,0-1,0.1-1.5,0.1C60.7,36.1,60.6,35.5,60.6,35.1z M63.7,35.4c0-0.3-0.1-0.5-0.3-0.7c0.6,0,1.3,0,1.9,0
	c0,0.5,0,1.1,0.1,1.6c-0.5,0.1-1.1,0.1-1.6,0.2C63.7,36.2,63.7,35.8,63.7,35.4z M66.9,34.7C66.9,34.7,66.9,34.7,66.9,34.7
	c0.6,0,1.2-0.1,1.8-0.1c0,0.4,0,0.8,0.1,1.2c-0.6,0.1-1.2,0.2-1.8,0.3C66.9,35.7,66.9,35.2,66.9,34.7z M5.8,30.1
	c-0.6,0.9-0.9,1.9-1,2.8c-0.4-0.1-0.7-0.1-0.9-0.2C4,31.6,4.8,30.6,5.8,30.1z M3.7,33.5c0-0.1,0-0.1,0-0.2c0.3,0.1,0.6,0.1,1,0.2
	c0,1.2,0.3,2.2,0.7,3.1C4.4,36,3.7,34.8,3.7,33.5z M61,37.8c0-0.1-0.1-0.2-0.1-0.4c0.5,0,1-0.1,1.5-0.1c0,0.1,0.1,0.2,0.1,0.3
	C62,37.7,61.5,37.7,61,37.8z M78.4,33.4c-0.3,0.4-0.9,0.8-1.5,1.2c-0.1-0.3-0.1-0.6-0.1-0.9c0.5-0.1,1-0.2,1.4-0.3l0.1,0
	c0.1,0,0.2-0.1,0.4-0.2C78.5,33.2,78.5,33.3,78.4,33.4z M72,35.5c0,0.2-0.1,0.3-0.3,0.3s-0.3-0.1-0.3-0.3c0-0.2,0.1-0.3,0.3-0.3
	S72,35.3,72,35.5z M5.3,17.6c-0.1,0.1-0.2,0.2-0.3,0.2c-0.1,0-0.2,0-0.2-0.1l-1.4-1c-0.2-0.1-0.2-0.4-0.1-0.5s0.4-0.2,0.5-0.1l1.4,1
	C5.4,17.1,5.5,17.4,5.3,17.6z M8.2,19.7c-0.1,0.1-0.2,0.2-0.3,0.2c-0.1,0-0.2,0-0.2-0.1l-2.1-1.6c-0.2-0.1-0.2-0.4-0.1-0.5
	s0.4-0.2,0.5-0.1l2.1,1.6C8.3,19.3,8.3,19.5,8.2,19.7z M40.6,28.1c0-0.2,0.2-0.4,0.4-0.4s0.4,0.2,0.4,0.4c0,0.2-0.2,0.4-0.4,0.4
	S40.6,28.3,40.6,28.1z M8.4,27.2c0-0.2,0.1-0.4,0.4-0.4c3.8-0.3,9.9,1.7,10.2,1.8c0.2,0.1,0.3,0.3,0.2,0.5c-0.1,0.2-0.2,0.3-0.4,0.3
	c0,0-0.1,0-0.1,0c0,0-2.1-0.7-4.5-1.2l-2.4-0.4c-1.1-0.1-2.1-0.2-3-0.2C8.6,27.5,8.4,27.4,8.4,27.2z M7.4,27.5
	c-0.2,0-0.4-0.2-0.3-0.4c0-0.2,0.2-0.4,0.4-0.3c0.2,0,0.4,0.2,0.3,0.4S7.6,27.5,7.4,27.5z M33.3,6.6c0-0.2,0.2-0.4,0.4-0.4
	S34,6.4,34,6.6C34,6.8,33.9,7,33.7,7S33.3,6.8,33.3,6.6z"/>
</svg>
