<?xml version="1.0" encoding="utf-8"?>
<!-- Generator: Adobe Illustrator 19.2.1, SVG Export Plug-In . SVG Version: 6.00 Build 0)  -->
<svg version="1.1" id="Layer_1" xmlns="http://www.w3.org/2000/svg" xmlns:xlink="http://www.w3.org/1999/xlink" x="0px" y="0px"
	 viewBox="0 0 100 100" style="enable-background:new 0 0 100 100;" xml:space="preserve">
<style type="text/css">
	.st0{fill:#FFFFFF;}
</style>
<path d="M-856.9,1043.4c0,0-4.7-9.5-14.2-9.5s-47.4,0-56.8,0s-14.2,9.5-14.2,9.5l-2.4,1.2v3.6l2.4,2.4c0,0,0,16.6,14.2,16.6
	c28.4,0,21.3-21.3,28.4-21.3c6.8,0,0,21.3,28.4,21.3c14.2,0,14.2-16.6,14.2-16.6l2.4-2.4v-3.6L-856.9,1043.4z M-929.8,1037.8
	c0.7-0.1,1.4-0.2,2.1-0.2c0,0,12.9,0,17.2,0c0.5,0,1,0.1,1.5,0.2c1.2,0.3,2.2,1,2.8,2h-28.1
	C-933.2,1038.8-931.7,1038.1-929.8,1037.8z M-923.2,1063.9h-6.8c-1.7-0.3-3.2-0.9-4.4-2h19.3
	C-917.1,1062.9-919.7,1063.6-923.2,1063.9z M-911.9,1059.9h-24.4c-0.4-0.6-0.8-1.2-1.1-2h27.2
	C-910.7,1058.6-911.2,1059.3-911.9,1059.9z M-909,1055.8h-29.2c-0.2-0.7-0.4-1.3-0.5-2h30.6C-908.4,1054.5-908.7,1055.2-909,1055.8z
	 M-907.5,1051.8h-31.6c-0.1-0.9-0.1-1.5-0.1-1.6l0-0.4h32.3C-907.1,1050.5-907.3,1051.2-907.5,1051.8z M-906.4,1047.8h-32.6l0.4-2
	h32.6C-906.1,1046.5-906.2,1047.1-906.4,1047.8z M-905.7,1043.7H-938c0.3-0.5,0.7-1.2,1.4-2h31c0,0.2,0,0.3,0,0.5
	C-905.6,1042.8-905.6,1043.2-905.7,1043.7z M-890,1037.8c0.5-0.1,0.9-0.2,1.5-0.2c4.3,0,17.2,0,17.2,0c0.8,0,1.4,0.1,2.1,0.2
	c1.9,0.3,3.4,1.1,4.6,2h-28.1C-892.1,1038.8-891.2,1038.1-890,1037.8z M-893.4,1042.3c0-0.2,0-0.4,0-0.5h31c0.6,0.8,1.1,1.5,1.4,2
	h-32.3C-893.4,1043.2-893.4,1042.8-893.4,1042.3z M-893.1,1045.8h32.6l0.4,2h-32.6C-892.8,1047.1-893,1046.5-893.1,1045.8z
	 M-868.8,1063.9c-0.7,0.1-1.5,0.2-2.3,0.2c-1.7,0-3.3-0.1-4.7-0.2h0c-3.5-0.3-6.1-1-8.1-2h19.4c-1.2,1-2.7,1.7-4.4,2H-868.8z
	 M-862.7,1059.9h-24.4c-0.7-0.6-1.2-1.3-1.7-2h27.2C-861.9,1058.6-862.3,1059.3-862.7,1059.9z M-860.8,1055.8H-890
	c-0.3-0.6-0.6-1.3-0.8-2h30.6C-860.4,1054.5-860.6,1055.2-860.8,1055.8z M-859.8,1050.3c0,0,0,0.6-0.1,1.6h-31.6
	c-0.2-0.6-0.4-1.3-0.6-2h32.3L-859.8,1050.3z"/>
<g>
	<path class="st0" d="M87.2,12.3C78,3.8,66.5-0.4,52.9-0.4C38.5-0.4,26.3,4.4,16.2,14S1,35.7,1,50c0,13.8,4.8,25.6,14.4,35.5
		c9.6,9.9,22.6,14.9,38.9,14.9c9.8,0,19.5-2,28.9-6.1c3.1-1.3,4.6-4.9,3.3-8l0,0c-1.3-3.2-5-4.7-8.1-3.3c-8.2,3.5-16.3,5.3-24.2,5.3
		c-12.5,0-22.2-3.8-29.1-11.4C18.4,69.3,15,60.4,15,50.1c0-11.1,3.7-20.4,11-27.9C33.3,14.7,42.4,11,53.1,11c9.9,0,18.2,3.1,25,9.2
		S88.2,34,88.2,43.3c0,6.4-1.6,11.7-4.7,15.9c-3.1,4.2-6.3,6.3-9.7,6.3c-1.8,0-2.7-1-2.7-2.9c0-1.6,0.1-3.4,0.3-5.6l3.8-31.3H62.2
		l-0.8,3.1c-3.4-2.7-7-4.1-11-4.1c-6.3,0-11.8,2.5-16.3,7.6c-4.5,5-6.8,11.5-6.8,19.5c0,7.8,2,14,6,18.8c4,4.8,8.8,7.1,14.5,7.1
		c5,0,9.3-2.1,12.9-6.3c2.7,4.1,6.7,6.1,11.9,6.1c7.7,0,14.4-3.4,20-10.1c5.6-6.7,8.4-14.8,8.4-24.3C101,31,96.4,20.8,87.2,12.3z
		 M56.9,59.6c-2.3,3.1-5.1,4.7-8.3,4.7c-2.2,0-4-1.2-5.3-3.5c-1.4-2.3-2-5.2-2-8.6c0-4.2,0.9-7.7,2.8-10.2c1.9-2.6,4.2-3.9,7-3.9
		c2.4,0,4.6,1,6.5,2.9c1.9,2,2.8,4.5,2.8,7.8C60.3,52.9,59.2,56.5,56.9,59.6z"/>
</g>
</svg>
